<svg width="66" height="66" viewBox="-5 -9 66 66" fill="none" xmlns="http://www.w3.org/2000/svg" role="img" aria-labelledby="title">
<title id="title">Bananas icon</title>
<path d="M11.269 28.0419C9.86555 27.8266 7.72207 27.0141 6.60964 26.4543C6.4436 26.3708 6.26228 26.3231 6.07671 26.3231H5.89468C5.60054 26.3231 5.31845 26.2053 5.11046 25.9956L4.54388 25.4243C4.31749 25.196 4.2002 24.8802 4.21078 24.5576C4.24659 23.4656 4.25098 21.7403 4.49562 20.9053C4.5705 20.6496 4.85209 20.6076 5.06092 20.771C5.51584 21.127 6.20306 21.7021 6.58555 22.0777C6.64928 22.1403 6.73164 22.1804 6.82029 22.188C19.5829 23.2809 33.23 19.4516 40.5818 15.5266C40.6774 15.4756 40.7654 15.6005 40.6851 15.6736C35.0271 20.8224 24.3617 25.1823 20.7773 25.9504C17.1007 26.7381 13.4241 27.5259 11.3384 28.0387C11.3153 28.0444 11.2925 28.0455 11.269 28.0419Z" fill="#311300"/>
<path d="M14.5982 43.5118C14.0037 42.6312 13.3248 42.0091 12.5842 41.6227C12.3657 41.5088 12.1252 41.6663 12.1425 41.9137C12.2355 43.2436 12.809 45.9355 12.9712 46.6784C12.999 46.8057 13.06 46.9226 13.1475 47.0186L13.9332 47.8796C14.0221 47.9771 14.1557 48.0197 14.284 47.9914L16.4275 47.5199C16.5542 47.492 16.6904 47.4814 16.8199 47.4874C60.9744 49.5248 58.8471 17.7788 53.4947 6.47307C53.4051 6.02141 55.9207 3.77474 56.4539 1.81248C56.4853 1.69691 56.452 1.57393 56.3674 1.48969C55.4123 0.537823 53.7382 -0.118417 51.6267 0.0179186C51.4502 0.0293161 51.3108 0.171142 51.2931 0.348601C51.115 2.13554 50.8735 3.62847 50.1569 6.07255C50.1341 6.1505 50.1382 6.23864 50.1662 6.31486C60.115 33.3864 25.4914 42.5089 14.9378 43.6805C14.799 43.6959 14.6768 43.6282 14.5982 43.5118Z" fill="#311300"/>
<path d="M15.8076 39.8862C11.7449 40.4542 5.66772 38.3988 2.93284 37.1447C2.78422 37.0766 2.62419 37.0403 2.46093 37.0403H2.04823C1.76059 37.0403 1.48421 36.9276 1.27741 36.726L0.486798 35.9554C0.309641 35.7827 0.193494 35.556 0.165504 35.3092C0.039099 34.1944 -0.0477722 32.4732 0.0286961 31.4118C0.0537542 31.064 0.39523 30.9143 0.653255 31.1465C1.25559 31.6886 2.06458 32.6107 2.52052 33.1516C2.58252 33.2251 2.67055 33.2718 2.76581 33.2815C22.6879 35.3177 39.6999 24.1483 48.071 13.3522C48.1287 13.2778 48.2435 13.3279 48.2298 13.4213C46.9267 22.295 33.735 30.7796 27.8014 33.1728C21.8064 35.5908 19.0789 37.2199 15.8529 39.8662C15.8398 39.8769 15.8243 39.8839 15.8076 39.8862Z" fill="#311300"/>
</svg>
